<?xml version="1.0" encoding="UTF-8"?>
<svg width="172px" height="179px" viewBox="0 0 172 179" version="1.1" xmlns="http://www.w3.org/2000/svg" xmlns:xlink="http://www.w3.org/1999/xlink">
    <title>8A5AD0CF-29B7-472F-8ECD-44EDD44A0954</title>
    <g id="Final" stroke="none" stroke-width="1" fill="none" fill-rule="evenodd">
        <g id="0_KekaWall_Empty_Screen" transform="translate(-814.000000, -417.000000)" fill-rule="nonzero">
            <g id="undraw_Onboarding_re_6osc-(1)" transform="translate(814.000000, 417.000000)">
                <path d="M167.980886,0 L3.4008858,0 C1.52333034,0 0,1.52324458 0,3.4008 L0,163.8156 C0,165.693151 1.52333479,167.2164 3.4008858,167.2164 L17.8308858,167.2164 L17.8308858,166.2453 L3.4008858,166.2453 C2.05964636,166.24374 0.97274606,165.156839 0.9711858,163.8156 L0.9711858,3.4008 C0.972741771,2.05955878 2.05964458,0.972655971 3.4008858,0.9711 L167.980886,0.9711 C169.323463,0.970992933 170.41248,2.05822491 170.414575,3.4008 L170.414575,163.8156 C170.414859,164.29006 170.275084,164.754047 170.01277,165.1494 C169.779653,165.497364 169.463291,165.78157 169.092425,165.9762 C168.748836,166.153695 168.367612,166.245988 167.980886,166.2453 L153.550886,166.2453 L153.550886,167.2164 L167.980886,167.2164 C168.975938,167.2164 169.920981,166.780221 170.566539,166.023 C170.59365,165.993793 170.618419,165.962496 170.640616,165.9294 C170.843679,165.68125 171.008038,165.403812 171.128116,165.1065 C171.29938,164.697741 171.385593,164.258786 171.385593,163.8156 L171.385593,3.4008 C171.383469,1.52194454 169.859742,0 167.980886,0 Z" id="Path" fill="#3F3D56"></path>
                <rect id="Rectangle" fill="#3F3D56" x="0.4844892" y="13.6316934" width="170.413136" height="1"></rect>
                <circle id="Oval" fill="#3F3D56" cx="8.7481641" cy="7.2929805" r="2.9165916"></circle>
                <circle id="Oval" fill="#3F3D56" cx="17.133363" cy="7.2929805" r="2.9165916"></circle>
                <circle id="Oval" fill="#3F3D56" cx="25.518558" cy="7.2929805" r="2.9165916"></circle>
                <path d="M126.837551,36.135762 L44.5475511,36.135762 C41.7474674,36.135762 39.4775511,33.8658457 39.4775511,31.065762 C39.4775511,28.2656783 41.7474674,25.995762 44.5475511,25.995762 L126.837551,25.995762 C129.637635,25.995762 131.907551,28.2656783 131.907551,31.065762 C131.907551,33.8658457 129.637635,36.135762 126.837551,36.135762 L126.837551,36.135762 Z M44.5475511,26.775762 C42.1782495,26.775762 40.2575511,28.6964604 40.2575511,31.065762 C40.2575511,33.4350636 42.1782495,35.355762 44.5475511,35.355762 L126.837551,35.355762 C129.206853,35.355762 131.127551,33.4350636 131.127551,31.065762 C131.127551,28.6964604 129.206853,26.775762 126.837551,26.775762 L44.5475511,26.775762 Z" id="Shape" fill="#3F3D56"></path>
                <path d="M147.702504,106.9575 L23.6825043,106.9575 C20.0225644,106.95338 17.0566245,103.98744 17.0525043,100.3275 L17.0525043,60.5475 C17.0566245,56.8875601 20.0225644,53.9216202 23.6825043,53.9175 L147.702504,53.9175 C151.362444,53.9216202 154.328384,56.8875601 154.332504,60.5475 L154.332504,100.3275 C154.328384,103.98744 151.362444,106.95338 147.702504,106.9575 Z M23.6825043,54.6975 C20.4531531,54.7011537 17.836158,57.3181488 17.8325043,60.5475 L17.8325043,100.3275 C17.836158,103.556851 20.4531531,106.173846 23.6825043,106.1775 L147.702504,106.1775 C150.931855,106.173846 153.548851,103.556851 153.552504,100.3275 L153.552504,60.5475 C153.548851,57.3181488 150.931855,54.7011537 147.702504,54.6975 L23.6825043,54.6975 Z" id="Shape" fill="#3F3D56"></path>
                <path d="M101.955879,78.2925 L58.6658787,78.2925 C56.9427503,78.2925 55.5458787,76.8956284 55.5458787,75.1725 C55.5458787,73.4493716 56.9427503,72.0525 58.6658787,72.0525 L101.955879,72.0525 C103.679007,72.0525 105.075879,73.4493716 105.075879,75.1725 C105.075879,76.8956284 103.679007,78.2925 101.955879,78.2925 Z" id="Path" fill="#5D9ED3"></path>
                <path d="M142.125879,88.8225 L58.6658787,88.8225 C56.9427503,88.8225 55.5458787,87.4256284 55.5458787,85.7025 C55.5458787,83.9793716 56.9427503,82.5825 58.6658787,82.5825 L142.125879,82.5825 C143.849007,82.5825 145.245879,83.9793716 145.245879,85.7025 C145.245879,87.4256284 143.849007,88.8225 142.125879,88.8225 Z" id="Path" fill="#5D9ED3"></path>
                <circle id="Oval" fill="#5D9ED3" cx="37.8392196" cy="80.4375" r="11.7"></circle>
                <path d="M142.121253,101.4975 L131.201253,101.4975 C129.478125,101.4975 128.081253,100.100628 128.081253,98.3775 C128.081253,96.6543716 129.478125,95.2575 131.201253,95.2575 L142.121253,95.2575 C143.844382,95.2575 145.241253,96.6543716 145.241253,98.3775 C145.241253,100.100628 143.844382,101.4975 142.121253,101.4975 Z" id="Path" fill="#FFFFFF"></path>
                <path d="M142.121253,101.4975 L131.201253,101.4975 C129.478125,101.4975 128.081253,100.100628 128.081253,98.3775 C128.081253,96.6543716 129.478125,95.2575 131.201253,95.2575 L142.121253,95.2575 C143.844382,95.2575 145.241253,96.6543716 145.241253,98.3775 C145.241253,100.100628 143.844382,101.4975 142.121253,101.4975 Z" id="Path" fill="#CCCCCC"></path>
                <path d="M147.700886,125.6775 L23.6808858,125.6775 C20.0213844,125.682677 17.0560627,128.647999 17.0508858,132.3075 L17.0508858,172.0875 C17.0560627,175.747001 20.0213844,178.712323 23.6808858,178.7175 L147.700886,178.7175 C151.360945,178.713667 154.327053,175.747559 154.330886,172.0875 L154.330886,132.3075 C154.327053,128.647441 151.360945,125.681333 147.700886,125.6775 Z M153.550886,172.0875 C153.548305,175.317296 150.930682,177.934919 147.700886,177.9375 L23.6808858,177.9375 C20.4516485,177.933572 17.834814,175.316737 17.8308858,172.0875 L17.8308858,132.3075 C17.834814,129.078263 20.4516485,126.461428 23.6808858,126.4575 L147.700886,126.4575 C150.930682,126.460081 153.548305,129.077704 153.550886,132.3075 L153.550886,172.0875 Z" id="Shape" fill="#3F3D56"></path>
                <path d="M101.955879,150.0525 L58.6658787,150.0525 C56.9427503,150.0525 55.5458787,148.655628 55.5458787,146.9325 C55.5458787,145.209372 56.9427503,143.8125 58.6658787,143.8125 L101.955879,143.8125 C103.679007,143.8125 105.075879,145.209372 105.075879,146.9325 C105.075879,148.655628 103.679007,150.0525 101.955879,150.0525 Z" id="Path" fill="#5D9ED3"></path>
                <path d="M142.125879,160.5825 L58.6658787,160.5825 C56.9427503,160.5825 55.5458787,159.185628 55.5458787,157.4625 C55.5458787,155.739372 56.9427503,154.3425 58.6658787,154.3425 L142.125879,154.3425 C143.849007,154.3425 145.245879,155.739372 145.245879,157.4625 C145.245879,159.185628 143.849007,160.5825 142.125879,160.5825 Z" id="Path" fill="#5D9ED3"></path>
                <circle id="Oval" fill="#5D9ED3" cx="37.8392196" cy="152.1975" r="11.7"></circle>
                <path d="M142.121253,173.2575 L131.201253,173.2575 C129.478125,173.2575 128.081253,171.860628 128.081253,170.1375 C128.081253,168.414372 129.478125,167.0175 131.201253,167.0175 L142.121253,167.0175 C143.844382,167.0175 145.241253,168.414372 145.241253,170.1375 C145.241253,171.860628 143.844382,173.2575 142.121253,173.2575 Z" id="Path" fill="#CCCCCC"></path>
            </g>
        </g>
    </g>
</svg>